# xmcd
#
# Track frame offsets:
#	150
#	11297
#	23261
#	38966
#	49930
#	63104
#	73624
#	84035
#	95318
#	109159
#	121543
#	130046
#
# Disc length: 1908 seconds
# Revision: 1
# Processed by: cddbd v1.5.2PL0 Copyright (c) Steve Scherf et al.
# Submitted via: dBpowerAMP V12.0
#
DISCID=7f07720c
DTITLE=Robyn Young - Like Father Like Son ........ A Remembrance
DYEAR=1900
DGENRE=Country
TTITLE0=Live Fast, Love Hard, Die Young
TTITLE1=Wine Me Up
TTITLE2=It's Four In The Morning
TTITLE3=Hello Walls
TTITLE4=Leavin' And Sayin' Goodbye
TTITLE5=Goin' Steady
TTITLE6=Occasional Wife
TTITLE7=Forgive Me, Dear
TTITLE8=I Miss You Already
TTITLE9=Step Aside
TTITLE10=Alone With You
TTITLE11=Yellow Bandana
EXTD=
EXTT0=
EXTT1=
EXTT2=
EXTT3=
EXTT4=
EXTT5=
EXTT6=
EXTT7=
EXTT8=
EXTT9=
EXTT10=
EXTT11=
PLAYORDER=
